<svg xmlns="http://www.w3.org/2000/svg" width="24" height="24" viewBox="0 0 24 24">
    <path fill="#EEEAE7" fill-rule="nonzero" d="M12 24C5.373 24 0 18.627 0 12S5.373 0 12 0s12 5.373 12 12-5.373 12-12 12zm5.392-13.485c.235-1.572-.962-2.417-2.599-2.981l.531-2.13-1.296-.323-.517 2.074a54.23 54.23 0 0 0-1.039-.245l.52-2.087-1.295-.323-.531 2.129a43.368 43.368 0 0 1-.828-.195l.001-.006-1.787-.447-.345 1.385s.962.22.941.234c.525.131.62.479.604.754l-.604 2.426c.036.01.083.023.134.043l-.137-.034-.847 3.4c-.065.159-.228.398-.595.307.013.019-.942-.235-.942-.235l-.643 1.484 1.687.42.924.239-.537 2.154 1.295.323.532-2.131c.353.096.697.185 1.033.268l-.53 2.121 1.297.323.536-2.15c2.21.419 3.873.25 4.573-1.75.563-1.61-.028-2.538-1.192-3.143.847-.196 1.485-.753 1.656-1.904zM14.43 14.67c-.4 1.61-3.111.74-3.99.521l.712-2.854c.878.22 3.696.654 3.278 2.333zm.4-4.177c-.365 1.464-2.62.72-3.353.538l.646-2.588c.732.182 3.088.522 2.708 2.05z" opacity=".5"/>
</svg>
