<svg xmlns="http://www.w3.org/2000/svg" width="48" height="43" viewBox="0 0 48 43">
    <path fill="#EEEAE7" fill-rule="nonzero" d="M28.8 33.444v-.002H24v-2.389h-4.8v-4.778h8.4a1.2 1.2 0 0 0 1.2-1.194 1.2 1.2 0 0 0-1.2-1.195h-2.4c-3.31 0-6-2.68-6-5.972 0-2.883 2.064-5.296 4.8-5.85V9.556h4.8v2.388h4.8v4.778h-8.4a1.2 1.2 0 0 0-1.2 1.195 1.2 1.2 0 0 0 1.2 1.194h2.4c3.31 0 6 2.68 6 5.972 0 2.886-2.064 5.299-4.8 5.853v2.508zM26.4 0C38.311 0 48 9.646 48 21.5S38.311 43 26.4 43v-4.778c9.262 0 16.8-7.498 16.8-16.722 0-9.221-7.538-16.722-16.8-16.722S9.6 12.278 9.6 21.5h4.8l-7.2 9.556L0 21.5h4.8C4.8 9.646 14.489 0 26.4 0z" opacity=".25"/>
</svg>
