<?xml version="1.0" encoding="UTF-8"?>
<svg width="24px" height="24px" viewBox="0 0 24 24" version="1.1" xmlns="http://www.w3.org/2000/svg" xmlns:xlink="http://www.w3.org/1999/xlink">
    <!-- Generator: Sketch 49 (51002) - http://www.bohemiancoding.com/sketch -->
    <title>cog</title>
    <desc>Created with Sketch.</desc>
    <defs></defs>
    <g id="actual" stroke="none" stroke-width="1" fill="none" fill-rule="evenodd">
        <g id="exoscope_mainpage" transform="translate(-1410.000000, -3025.000000)" fill="#24213E">
            <g id="personalize" transform="translate(774.000000, 2857.000000)">
                <g id="settings_active" transform="translate(609.000000, 148.000000)">
                    <path d="M51,34.1808183 L47.42,34.1808183 C47.224,34.9287559 46.932,35.6306974 46.558,36.2866428 L48.818,38.5464545 L45.546,41.816182 L43.284,39.5563703 C42.63,39.932339 41.928,40.2243146 41.178,40.4162986 L41.178,44 L36.816,44 L36.816,40.4182985 C36.068,40.2263145 35.366,39.9343388 34.712,39.5583701 L32.45,41.8181818 L29.18,38.5484543 L31.442,36.2886426 C31.068,35.6306974 30.776,34.9307558 30.58,34.1828181 L27,34.1828181 L27,29.8191817 L30.58,29.8191817 C30.776,29.0732439 31.068,28.3733022 31.442,27.7133572 L29.18,25.4535455 L32.454,22.1818182 L34.716,24.4416299 C35.37,24.0656612 36.072,23.7756854 36.82,23.5817015 L36.82,20 L41.182,20 L41.182,23.5817015 C41.932,23.7756854 42.634,24.0656612 43.288,24.4416299 L45.55,22.1818182 L48.822,25.4535455 L46.562,27.7133572 C46.936,28.3733022 47.228,29.0712441 47.424,29.8191817 L51,29.8191817 L51,34.1808183 Z M39,36.8006 C41.6509668,36.8006 43.8,34.6517458 43.8,32.0009999 C43.8,29.350254 41.6509668,27.2013999 39,27.2013999 C36.3490332,27.2013999 34.2,29.350254 34.2,32.0009999 C34.2,34.6517458 36.3490332,36.8006 39,36.8006 Z" id="cog"></path>
                </g>
            </g>
        </g>
    </g>
</svg>