<svg xmlns="http://www.w3.org/2000/svg" width="48" height="46" viewBox="0 0 48 46">
    <path fill="#FBB587" fill-rule="nonzero" d="M43.636 4.381h-4.363V0h-4.364v10.952h-4.364V4.381h-13.09V0H13.09v10.952H8.727V4.381H4.364C1.957 4.381 0 6.348 0 8.761V41.62C0 44.033 1.957 46 4.364 46h39.272C46.043 46 48 44.033 48 41.619V8.762c0-2.416-1.957-4.381-4.364-4.381zM15.273 39.429H6.545v-8.762h8.728v8.762zm0-13.143H6.545v-8.762h8.728v8.762zm13.09 13.143h-8.727v-8.762h8.728v8.762zm0-13.143h-8.727v-8.762h8.728v8.762zm13.092 0h-8.728v-8.762h8.728v8.762z" opacity=".25"/>
</svg>
