<?xml version="1.0" encoding="UTF-8"?>
<svg width="48px" height="48px" viewBox="0 0 48 48" version="1.1" xmlns="http://www.w3.org/2000/svg" xmlns:xlink="http://www.w3.org/1999/xlink">
    <!-- Generator: Sketch 48.2 (47327) - http://www.bohemiancoding.com/sketch -->
    <title>Shape</title>
    <desc>Created with Sketch.</desc>
    <defs></defs>
    <g id="exoscope_mainpage" stroke="none" stroke-width="1" fill="none" fill-rule="evenodd" transform="translate(-829.000000, -1447.000000)" opacity="0.25">
        <g id="cryptomarketcap" transform="translate(239.000000, 1435.000000)" fill="#EEEAE7" fill-rule="nonzero">
            <path d="M615.671466,37.1197299 L607.824841,37.1197299 L607.824841,42.7475403 L615.584241,42.7475403 C617.364867,42.7475403 618.915818,42.1741272 618.915818,40.0487307 C618.915818,37.9522371 617.595574,37.1197299 615.671466,37.1197299 Z M618.082795,31.6064989 C618.082795,29.6540037 616.58965,29.2514274 614.981409,29.2514274 L607.824841,29.2514274 L607.824841,34.046731 L615.326695,34.0467307 C616.906033,34.0472468 618.082795,33.329319 618.082795,31.6064989 Z M633.51179,27.9177643 C634.415522,25.0517306 633.73682,21.7955076 631.464844,19.523532 L630.475436,18.5346394 C628.203976,16.26318 624.947237,15.5839615 622.08172,16.4876937 C620.69438,13.8229481 617.911442,12 614.699089,12 L613.299878,12 C610.08701,12 607.305104,13.8229481 605.917248,16.4876937 C603.051731,15.5839615 599.795508,16.2626638 597.523532,18.5346394 L596.534123,19.523532 C594.262664,21.7949915 593.583445,25.0517306 594.487178,27.9177643 C591.822948,29.3051042 590,32.0880421 590,35.3003946 L590,36.6996054 C590,39.9124741 591.822948,42.6943796 594.487694,44.0822357 C593.583961,46.9482694 594.262664,50.2044924 596.534639,52.476468 L597.524048,53.4653606 C599.795508,55.73682 603.052247,56.4160385 605.917764,55.5123063 C607.305104,58.1770519 610.087526,60 613.300395,60 L614.699605,60 C617.911958,60 620.69438,58.1770519 622.082236,55.5123063 C624.947753,56.4160385 628.203976,55.7373362 630.475952,53.4653606 L631.465361,52.476468 C633.73682,50.2050085 634.416039,46.9482694 633.512306,44.0822357 C636.177052,42.6948958 638,39.9124741 638,36.6996054 L638,35.3003946 C637.999484,32.0880421 636.176536,29.3051042 633.51179,27.9177643 Z M616.188106,46.2515027 L615.74682,46.2515027 L615.74682,49.2801153 L613.64981,49.2801153 L613.64981,46.2515027 L610.993839,46.2515027 L610.993839,49.2801153 L608.896829,49.2801153 L608.896829,46.2515027 L604.574295,46.2515027 L604.574295,25.7484973 L608.896829,25.7484973 L608.896829,22.7193686 L610.993839,22.7193686 L610.993839,25.7484973 L613.64981,25.7484973 L613.64981,22.7193686 L615.74682,22.7193686 L615.74682,25.7484973 L615.901141,25.7484973 C619.806131,25.7484973 622.448167,27.0119676 622.448167,30.8307653 C622.448167,32.8415823 621.443275,34.2480188 619.663165,35.1099451 C622.161719,35.8283889 623.424673,37.7519812 623.424673,40.3073085 C623.424673,44.4708767 619.892324,46.2515027 616.188106,46.2515027 Z" id="Shape"></path>
        </g>
    </g>
</svg>