<?xml version="1.0" encoding="UTF-8"?>
<svg width="64px" height="64px" viewBox="0 0 64 64" version="1.1" xmlns="http://www.w3.org/2000/svg" xmlns:xlink="http://www.w3.org/1999/xlink">
    <!-- Generator: Sketch 48.2 (47327) - http://www.bohemiancoding.com/sketch -->
    <title>Combined Shape</title>
    <desc>Created with Sketch.</desc>
    <defs></defs>
    <g id="exoscope_mainpage" stroke="none" stroke-width="1" fill="none" fill-rule="evenodd" transform="translate(-239.000000, -1435.000000)" opacity="0.25">
        <g id="cryptomarketcap" transform="translate(239.000000, 1435.000000)" fill="#FBB587" fill-rule="nonzero">
            <path d="M48,19.1968 C46.2368,19.1968 44.8,20.6368 44.8,22.4 L44.8,25.6 C44.8,27.3632 46.2368,28.8 48,28.8 L54.4,28.8 C59.6928,28.8 64,33.1104 64,38.4 L64,41.6 C64,46.8928 59.6928,51.2 54.4,51.2 L54.4,57.6 L48,57.6 L48,51.2 L38.4,51.2 L38.4,44.8 L54.4,44.8 C56.1632,44.8 57.6,43.3632 57.6,41.6 L57.6,38.4 C57.6,36.6368 56.1632,35.2 54.4,35.2 L48,35.2 C42.7072,35.2 38.4,30.8928 38.4,25.6 L38.4,22.4 C38.4,17.1104 42.7072,12.8 48,12.8 L48,6.4 L54.4,6.4 L54.4,12.7968 L64,12.7968 L64,19.1968 L48,19.1968 Z M2.6912,19.1968 C4.9152,14.1248 8.4256,9.7536 12.8,6.4608 L12.8,19.1968 L2.6912,19.1968 Z M12.8,57.536 C8.4256,54.2432 4.9152,49.8752 2.6912,44.8 L12.8,44.8 L12.8,57.536 Z M0,32 C0,29.8048 0.224,27.6608 0.6432,25.6 L12.8,25.6 L12.8,38.4 L0.6432,38.4 C0.224,36.3296 0,34.1952 0,32 Z M19.2,19.1968 L19.2,2.688 C23.1264,0.9696 27.4496,0 32,0 L32,19.1968 L19.2,19.1968 Z M19.2,25.6 L32,25.6 L32,38.4 L19.2,38.4 L19.2,25.6 Z M19.2,61.3088 L19.2,44.8 L32,44.8 L32,64 C27.4496,64 23.1264,63.0272 19.2,61.3088 Z" id="Combined-Shape"></path>
        </g>
    </g>
</svg>