<svg xmlns="http://www.w3.org/2000/svg" width="13" height="16" viewBox="0 0 13 16">
    <path fill="#FBB587" fill-rule="nonzero" d="M2.288 14.867c0 .458-.278.871-.706 1.047-.427.175-.92.078-1.247-.246a1.125 1.125 0 0 1-.248-1.235c.177-.424.594-.7 1.057-.7.632 0 1.144.508 1.144 1.134zm2.427-1.134c-.463 0-.88.276-1.057.7-.177.423-.08.91.248 1.235.327.324.82.421 1.247.246a1.128 1.128 0 0 0 .37-1.85 1.15 1.15 0 0 0-.813-.33h.005zm3.57 0c-.462 0-.88.276-1.057.7-.177.423-.079.91.248 1.235.327.324.82.421 1.247.246a1.128 1.128 0 0 0 .37-1.85 1.15 1.15 0 0 0-.813-.33h.005zm3.57 0c-.462 0-.88.276-1.056.7-.177.423-.08.91.248 1.235.327.324.82.421 1.247.246a1.128 1.128 0 0 0 .37-1.85 1.15 1.15 0 0 0-.813-.33h.005zm-1.843-2.268h-7.05a1.22 1.22 0 0 1-1.224-1.212l.024-4.403a1.217 1.217 0 0 1 .935-1.183V3.747a3.696 3.696 0 0 1 1.148-2.684A3.807 3.807 0 0 1 6.495 0h.086c2.019.057 3.673 1.772 3.673 3.822v.833c.578.108.997.609.998 1.192l-.024 4.403a1.22 1.22 0 0 1-1.216 1.215zm-2.373-3.5c0-.626-.513-1.132-1.145-1.132S5.35 7.342 5.35 7.967c0 .626.512 1.133 1.144 1.133.303 0 .594-.12.809-.332.215-.213.335-.5.335-.801v-.002zm.488-4.167A1.672 1.672 0 0 0 6.468 2.11c-.404 0-.793.148-1.092.417-.35.31-.55.752-.55 1.216v.894h3.301v-.839z"/>
</svg>
