<svg xmlns="http://www.w3.org/2000/svg" width="144" height="23" viewBox="0 0 144 23">
    <path fill="#FBB587" fill-rule="evenodd" d="M111.636 22.02h-3.312V.538h3.247V3.22c.928-1.717 2.961-3.077 5.745-3.077 5.138 0 7.885 3.972 7.885 8.982 0 5.116-2.961 9.088-7.992 9.088-1.463 0-2.728-.384-3.723-.988v-3.228c.847.77 1.945 1.21 3.223 1.21 3.104 0 5.067-2.54 5.067-6.082 0-3.436-1.927-6.012-5.067-6.012-3.069 0-5.102 2.576-5.102 6.012l.03 12.896zM43.891 0c-5.138 0-8.778 3.9-8.778 9.125 0 5.26 3.64 9.16 8.778 9.16s8.777-3.9 8.777-9.16C52.668 3.9 49.028 0 43.891 0zM54.6 13.275c.285 1.968 2.283 5.01 6.993 5.01 4.246 0 6.28-2.898 6.28-5.332 0-2.54-1.641-4.437-4.746-5.117l-2.783-.608c-1.32-.286-1.962-1.038-1.962-2.075 0-1.181 1.142-2.29 2.854-2.29 2.712 0 3.426 1.968 3.568 2.862l2.962-1.109C67.41 3.077 65.947 0 61.237 0c-3.354 0-6.101 2.505-6.101 5.439 0 2.433 1.606 4.258 4.282 4.83l2.925.645c1.428.322 2.213 1.145 2.213 2.218 0 1.217-1.035 2.29-2.926 2.29-2.426 0-3.782-1.431-3.996-3.22L54.6 13.275zM78.62 3.113c2.926 0 4.174 1.968 4.603 3.65l3.033-1.288C85.542 2.863 83.187 0 78.62 0c-4.888 0-8.635 3.757-8.635 9.125 0 5.224 3.675 9.16 8.67 9.16 4.46 0 6.923-2.898 7.743-5.367l-2.961-1.289c-.393 1.36-1.57 3.543-4.781 3.543-2.784 0-5.246-2.111-5.246-6.047 0-4.008 2.498-6.012 5.21-6.012zM96.752 0c-5.138 0-8.778 3.9-8.778 9.125 0 5.26 3.64 9.16 8.778 9.16s8.777-3.9 8.777-9.16C105.53 3.9 101.89 0 96.752 0zm34.057 10.09c.071 3.078 2.283 5.225 5.174 5.225 2.783 0 4.174-1.539 4.816-3.471l2.89 1.002c-.963 3.041-3.71 5.439-7.706 5.439-4.603 0-8.635-3.364-8.635-9.196 0-5.403 3.889-9.089 8.206-9.089 5.281 0 8.243 3.65 8.243 9.017 0 .43-.036.859-.072 1.074H130.81zm-109.19 7.658h-3.995l5.218-7.163 1.957 2.537-3.18 4.626zm12.81 0h-4.032L17.837.537h4.068l4.21 6.047 4.14-6.047h3.96L28.114 8.98c1.035 1.396 5.28 7.371 6.315 8.767zm9.462-2.469c-2.855 0-5.353-2.147-5.353-6.154 0-3.972 2.498-6.12 5.353-6.12 2.854 0 5.352 2.148 5.352 6.12 0 4.007-2.498 6.154-5.352 6.154zm52.86 0c-2.854 0-5.352-2.147-5.352-6.154 0-3.972 2.498-6.12 5.353-6.12 2.854 0 5.352 2.148 5.352 6.12 0 4.007-2.498 6.154-5.352 6.154zM140.3 7.371c-.071-2.469-1.677-4.401-4.71-4.401-2.819 0-4.531 2.183-4.674 4.401h9.384zM3.46 10.091c.071 3.077 2.284 5.224 5.174 5.224 2.783 0 4.174-1.539 4.817-3.471l2.89 1.002c-.964 3.041-3.711 5.439-7.707 5.439C4.032 18.285 0 14.92 0 9.089 0 3.686 3.89 0 8.207 0c5.28 0 8.242 3.65 8.242 9.017 0 .43-.036.859-.072 1.074H3.461zm9.491-2.72c-.071-2.469-1.677-4.401-4.71-4.401-2.819 0-4.531 2.183-4.674 4.401h9.384z"/>
</svg>
