<?xml version="1.0" encoding="UTF-8"?>
<svg width="34px" height="24px" viewBox="0 0 34 24" version="1.1" xmlns="http://www.w3.org/2000/svg" xmlns:xlink="http://www.w3.org/1999/xlink">
    <!-- Generator: sketchtool 49.1 (51147) - http://www.bohemiancoding.com/sketch -->
    <title>34FD139A-D339-479F-A1CC-8F7D580F6B95</title>
    <desc>Created with sketchtool.</desc>
    <defs></defs>
    <g id="content" stroke="none" stroke-width="1" fill="none" fill-rule="evenodd">
        <g id="exoscope_episode" transform="translate(-279.000000, -4410.000000)" fill="#FFFFFF">
            <g id="6" transform="translate(240.000000, 3800.000000)">
                <g id="expert" transform="translate(0.000000, 594.000000)">
                    <g id="ocenka" transform="translate(24.000000, 16.000000)">
                        <g id="no-changes">
                            <g id="no_changes" transform="translate(32.000000, 12.000000) scale(-1, 1) translate(-32.000000, -12.000000) translate(15.000000, 0.000000)">
                                <rect id="Rectangle-2" opacity="0.099999994" x="1" y="0" width="2" height="24"></rect>
                                <rect id="Rectangle-2" opacity="0.099999994" x="7" y="0" width="2" height="24"></rect>
                                <rect id="Rectangle-2" opacity="0.099999994" x="13" y="0" width="2" height="24"></rect>
                                <rect id="Rectangle-2" opacity="0.099999994" x="19" y="0" width="2" height="24"></rect>
                                <rect id="Rectangle-2" opacity="0.099999994" x="25" y="0" width="2" height="24"></rect>
                                <rect id="Rectangle-2" opacity="0.099999994" x="31" y="0" width="2" height="24"></rect>
                                <rect id="Rectangle-4" x="6" y="11" width="4" height="2"></rect>
                                <rect id="Rectangle-4" x="12" y="11" width="4" height="2"></rect>
                                <rect id="Rectangle-4" x="0" y="11" width="4" height="2"></rect>
                                <rect id="Rectangle-4" x="18" y="11" width="4" height="2"></rect>
                                <rect id="Rectangle-4" x="24" y="11" width="4" height="2"></rect>
                                <rect id="Rectangle-4" x="30" y="11" width="4" height="2"></rect>
                            </g>
                        </g>
                    </g>
                </g>
            </g>
        </g>
    </g>
</svg>