<?xml version="1.0" encoding="UTF-8"?>
<svg width="24px" height="24px" viewBox="0 0 24 24" version="1.1" xmlns="http://www.w3.org/2000/svg" xmlns:xlink="http://www.w3.org/1999/xlink">
    <!-- Generator: sketchtool 49.1 (51147) - http://www.bohemiancoding.com/sketch -->
    <title>39D85445-AC31-4555-AE65-0715C1D47C07</title>
    <desc>Created with sketchtool.</desc>
    <defs></defs>
    <g id="content" stroke="none" stroke-width="1" fill="none" fill-rule="evenodd" opacity="0.5">
        <g id="exoscope_episode" transform="translate(-675.000000, -2568.000000)" fill="#3D2FBB" fill-rule="nonzero">
            <g id="4" transform="translate(240.000000, 2562.000000)">
                <g id="xrp" transform="translate(435.000000, 6.000000)">
                    <path d="M12,24 C5.372583,24 0,18.627417 0,12 C0,5.372583 5.372583,0 12,0 C18.627417,0 24,5.372583 24,12 C24,18.627417 18.627417,24 12,24 Z M16.4705444,13.6539121 C15.9528552,13.3477 15.3698727,13.2589481 14.792415,13.2382896 C14.3079299,13.2209579 13.5850998,12.9029117 13.5850998,12.0000421 C13.5850998,11.3273479 14.1174164,10.785963 14.7926627,10.7618086 C15.3700722,10.7411501 15.9529997,10.6522855 16.4705444,10.346179 C17.7558095,9.58601385 18.3227732,7.99023608 17.8151711,6.56158786 C17.307569,5.13293965 15.8719445,4.28386714 14.4104036,4.54790378 C12.9488628,4.81194043 11.883348,6.11285971 11.8833989,7.6332003 C11.8833989,8.24017635 12.0941334,8.79874493 12.3630266,9.31680705 C12.5891797,9.75253125 12.703598,10.561243 11.9279552,11.0199798 C11.3509654,11.361243 10.6308737,11.1451571 10.2711959,10.5554634 C9.96737873,10.0573901 9.60062123,9.59070998 9.0871428,9.28695758 C7.80189923,8.52679335 6.16940448,8.8216734 5.21545907,9.98630587 C4.26151364,11.1509384 4.26151364,12.8491035 5.21545907,14.013736 C6.16940448,15.1783685 7.80189923,15.4732485 9.0871428,14.7130843 C9.6004767,14.4094447 9.96726863,13.9430675 10.2708932,13.4452974 C10.520219,13.0365469 11.1429141,12.5155245 11.9279277,12.9801678 C12.5040368,13.3211632 12.6821385,14.0682731 12.3627582,14.6836507 C12.0939064,15.2016353 11.8834401,15.760084 11.8834401,16.3669544 C11.8834424,17.8872572 12.9489649,19.1881103 14.410475,19.4521085 C15.871985,19.7161067 17.3075594,18.8670365 17.8151393,17.4384202 C18.3227194,16.0098039 17.7557718,14.4140687 16.4705444,13.6539121 Z"></path>
                </g>
            </g>
        </g>
    </g>
</svg>